<?xml version="1.0" encoding="UTF-8" standalone="no"?>
<!-- Created with Inkscape (http://www.inkscape.org/) -->

<svg
   width="210mm"
   height="297mm"
   viewBox="0 0 210 297"
   version="1.1"
   id="svg5"
   xml:space="preserve"
   sodipodi:docname="invoice-english-2nd-page.svg"
   inkscape:version="1.2.2 (b0a8486541, 2022-12-01)"
   xmlns:inkscape="http://www.inkscape.org/namespaces/inkscape"
   xmlns:sodipodi="http://sodipodi.sourceforge.net/DTD/sodipodi-0.dtd"
   xmlns="http://www.w3.org/2000/svg"
   xmlns:svg="http://www.w3.org/2000/svg"><sodipodi:namedview
   id="namedview1242"
   pagecolor="#ffffff"
   bordercolor="#000000"
   borderopacity="0.25"
   inkscape:showpageshadow="2"
   inkscape:pageopacity="0.0"
   inkscape:pagecheckerboard="0"
   inkscape:deskcolor="#d1d1d1"
   inkscape:document-units="mm"
   showgrid="false"
   inkscape:zoom="3.0578312"
   inkscape:cx="170.3822"
   inkscape:cy="131.95627"
   inkscape:window-width="1920"
   inkscape:window-height="1043"
   inkscape:window-x="0"
   inkscape:window-y="0"
   inkscape:window-maximized="1"
   inkscape:current-layer="layer1" /><defs
   id="defs2"><rect
     x="324.85948"
     y="412.41881"
     width="101.71162"
     height="18.849578"
     id="rect1738" /><rect
     x="631.76927"
     y="409.06328"
     width="105.53513"
     height="27.372342"
     id="rect7024" /><rect
     x="551.76892"
     y="408.94201"
     width="72.627218"
     height="27.493608"
     id="rect7018" /><rect
     x="433.76837"
     y="408.65199"
     width="111.74629"
     height="27.783633"
     id="rect7012" /><rect
     x="433.76837"
     y="417.92326"
     width="89.672447"
     height="22.020661"
     id="rect7002" /><rect
     x="323.76808"
     y="409.42001"
     width="103.66632"
     height="22.305596"
     id="rect6990" /><rect
     x="323.76808"
     y="417.92326"
     width="103.66632"
     height="16.387229"
     id="rect6984" /><rect
     x="168.79391"
     y="386.27783"
     width="85.774249"
     height="62.004387"
     id="rect6978" /><rect
     x="50.832275"
     y="387.55354"
     width="108.71504"
     height="62.187454"
     id="rect6972" /><rect
     x="45.657558"
     y="382.09625"
     width="118.11065"
     height="71.442557"
     id="rect6033" /><rect
     x="50.879595"
     y="464.27878"
     width="104.10255"
     height="62.495422"
     id="rect6027" /><rect
     x="50.879595"
     y="468.22521"
     width="107.05213"
     height="64.58487"
     id="rect6017" /><rect
     x="61.371428"
     y="393.52131"
     width="93.980754"
     height="50.650407"
     id="rect6011" /><rect
     x="50.879595"
     y="389.34248"
     width="78.14123"
     height="40.467824"
     id="rect6001" /><rect
     x="55.235455"
     y="382.09625"
     width="94.347336"
     height="59.992672"
     id="rect5995" /><rect
     x="45.657558"
     y="382.09625"
     width="118.11065"
     height="71.442557"
     id="rect4537" /><rect
     x="323.76808"
     y="409.42001"
     width="103.66632"
     height="22.305596"
     id="rect6998" /><rect
     x="50.832275"
     y="387.55354"
     width="108.71504"
     height="62.187454"
     id="rect8765" /><rect
     x="168.79391"
     y="386.27783"
     width="85.774249"
     height="62.004387"
     id="rect8767" /><rect
     x="323.76808"
     y="409.42001"
     width="103.66632"
     height="22.305596"
     id="rect8769" /><rect
     x="433.76837"
     y="408.65199"
     width="111.74629"
     height="27.783633"
     id="rect8771" /><rect
     x="551.76892"
     y="408.94201"
     width="72.627218"
     height="27.493608"
     id="rect8773" /><rect
     x="631.76927"
     y="409.06328"
     width="105.53513"
     height="27.372342"
     id="rect8775" /><rect
     x="433.76837"
     y="408.65199"
     width="111.74629"
     height="27.783633"
     id="rect1438" /><rect
     x="433.76837"
     y="408.65199"
     width="111.74629"
     height="27.783633"
     id="rect1746" /><rect
     x="433.76837"
     y="408.65199"
     width="98.061962"
     height="27.783635"
     id="rect1752" /><rect
     x="50.832275"
     y="387.55354"
     width="108.71504"
     height="62.187454"
     id="rect2595" /><rect
     x="168.79391"
     y="386.27783"
     width="85.774249"
     height="62.004387"
     id="rect2597" /><rect
     x="551.76892"
     y="408.94201"
     width="72.627218"
     height="27.493608"
     id="rect2599" /><rect
     x="631.76927"
     y="409.06328"
     width="105.53513"
     height="27.372342"
     id="rect2601" /><rect
     x="433.76837"
     y="408.65199"
     width="111.74629"
     height="27.783633"
     id="rect2603" /><rect
     x="433.76837"
     y="408.65199"
     width="98.061962"
     height="27.783635"
     id="rect2605" /><rect
     x="631.76927"
     y="409.06328"
     width="105.53513"
     height="27.372342"
     id="rect1809" /><rect
     x="551.76892"
     y="408.94201"
     width="72.627218"
     height="27.493608"
     id="rect1811" /><rect
     x="433.76837"
     y="408.65199"
     width="111.74629"
     height="27.783633"
     id="rect1813" /><rect
     x="433.76837"
     y="408.65199"
     width="98.061962"
     height="27.783635"
     id="rect1815" /><rect
     x="168.79391"
     y="386.27783"
     width="85.774249"
     height="62.004387"
     id="rect1817" /><rect
     x="50.832275"
     y="387.55354"
     width="108.71504"
     height="62.187454"
     id="rect1819" /><rect
     x="50.832275"
     y="387.55354"
     width="108.71504"
     height="62.187454"
     id="rect526" /><rect
     x="168.79391"
     y="386.27783"
     width="85.774249"
     height="62.004387"
     id="rect528" /><rect
     x="433.76837"
     y="408.65199"
     width="98.061962"
     height="27.783635"
     id="rect530" /><rect
     x="433.76837"
     y="408.65199"
     width="111.74629"
     height="27.783633"
     id="rect532" /><rect
     x="551.76892"
     y="408.94201"
     width="72.627218"
     height="27.493608"
     id="rect534" /><rect
     x="631.76927"
     y="409.06328"
     width="105.53513"
     height="27.372342"
     id="rect536" /><rect
     x="50.832275"
     y="387.55354"
     width="108.71504"
     height="62.187454"
     id="rect494" /><rect
     x="168.79391"
     y="386.27783"
     width="85.774249"
     height="62.004387"
     id="rect496" /><rect
     x="433.76837"
     y="408.65199"
     width="98.061962"
     height="27.783635"
     id="rect498" /><rect
     x="433.76837"
     y="408.65199"
     width="111.74629"
     height="27.783633"
     id="rect500" /><rect
     x="551.76892"
     y="408.94201"
     width="72.627218"
     height="27.493608"
     id="rect502" /><rect
     x="631.76927"
     y="409.06328"
     width="105.53513"
     height="27.372342"
     id="rect504" /></defs><g
   id="layer1">
         
  <g
   id="orderedItemTable"
   inkscape:label="lower table"
   transform="translate(0,-88.370868)">
   
   

  <!-- rows starts  -->
    <g
   id="rows"
   inkscape:label="rows">

     <!-- signel rows will go here -->
   
   </g>

   <!-- rows ends  -->
   

   </g>
    </g>
         </svg>
